<?xml version="1.0" encoding="UTF-8" standalone="no"?><!-- Generator: Gravit.io --><svg xmlns="http://www.w3.org/2000/svg" xmlns:xlink="http://www.w3.org/1999/xlink" style="isolation:isolate" viewBox="0 0 600 600" width="600pt" height="600pt"><defs><clipPath id="_clipPath_Wdptaeb6Ke5maGzZlIiXAvWVsTb8Oxoi"><rect width="600" height="600"/></clipPath></defs><g clip-path="url(#_clipPath_Wdptaeb6Ke5maGzZlIiXAvWVsTb8Oxoi)"><clipPath id="_clipPath_332GaV8CqodAgbQzbDD5SfHgKsdhNYMM"><ellipse vector-effect="non-scaling-stroke" cx="271.99999999999955" cy="247.50000000000014" rx="254" ry="239.5" fill="rgb(255,255,255)"/></clipPath><g clip-path="url(#_clipPath_332GaV8CqodAgbQzbDD5SfHgKsdhNYMM)"><mask id="_mask_XSMl27YyOPmazijnfmznWZzDPDqedzNZ"><ellipse vector-effect="non-scaling-stroke" cx="271.99999999999955" cy="247.50000000000014" rx="254" ry="239.5" fill="white" stroke="none"/></mask><ellipse vector-effect="non-scaling-stroke" cx="271.99999999999955" cy="247.50000000000014" rx="254" ry="239.5" fill="rgb(255,253,253)"/><ellipse vector-effect="non-scaling-stroke" cx="271.99999999999955" cy="247.50000000000014" rx="254" ry="239.5" fill="rgb(255,253,253)" mask="url(#_mask_XSMl27YyOPmazijnfmznWZzDPDqedzNZ)" stroke-width="56" stroke="rgb(0,125,184)" stroke-opacity="100" stroke-linejoin="miter" stroke-linecap="square" stroke-miterlimit="3"/></g><path d=" M 367.817 292.35 L 335.774 310.85 L 284.274 221.65 L 316.317 203.15 L 352.817 266.37 L 352.817 266.37 L 385.726 247.37 L 400.726 273.35 L 367.817 292.35 Z " fill-rule="evenodd" fill="rgb(0,125,184)"/><path d=" M 375.548 221.65 L 427.048 310.85 L 459.091 292.35 L 444.091 266.37 L 407.591 203.15 L 375.548 221.65 Z  M 459.091 292.35 L 492 273.35 L 477 247.37 L 444.091 266.37 L 444.091 266.37 L 459.091 292.35 Z " fill-rule="evenodd" fill="rgb(0,125,184)"/><g><path d=" M 54.316 227.574 L 113.399 311.954 C 117.397 309.154 128.337 301.494 144.538 290.15 L 85.455 205.77 L 54.316 227.574 Z " fill="rgb(0,125,184)"/><path d=" M 84.629 206.359 L 100.412 195.307 Q 104.04 192.647 108.462 190.891 C 112.288 189.373 117.447 188.42 119.894 187.77 C 127.207 185.826 132.078 186.403 133.877 186.524 C 143.221 187.152 152.068 189.127 157.953 192.621 C 167.336 198.189 172.528 206.592 173.434 207.657 C 174.34 208.722 179.802 217.842 181.266 224.147 C 182.712 230.375 182.262 236.957 181.563 242.251 C 180.894 247.321 179.046 253.707 176.243 259.404 Q 172.445 267.124 161.152 278.517 L 144.538 290.15 L 84.629 206.359 Z " fill="rgb(0,125,184)"/><path d=" M 101.834 230.917 L 126.498 266.141 L 136.327 259.258 Q 141.342 255.954 143.126 253.276 C 144.82 250.735 145.599 247.872 145.992 245.165 C 146.43 242.156 145.858 239.766 145.256 237.14 C 144.654 234.514 142.79 232.567 141.484 230.01 Q 138.375 225.72 136.077 224.031 Q 133.372 222.043 127.346 220.378 Q 122.67 220.053 120.183 220.51 Q 116.973 221.1 111.664 224.034 L 101.834 230.917 Z " fill="rgb(244,246,247)"/></g><path d=" M 188 191 L 188 305.076 L 218.805 305.076 L 218.805 191 L 188 191 Z " fill="rgb(0,125,184)"/><rect x="217.664" y="277" width="64.61" height="28.076" transform="matrix(1,0,0,1,0,0)" fill="rgb(0,125,184)"/><rect x="217.664" y="234" width="64.61" height="28.076" transform="matrix(1,0,0,1,0,0)" fill="rgb(0,125,184)"/><rect x="217.664" y="191" width="64.61" height="28.076" transform="matrix(1,0,0,1,0,0)" fill="rgb(0,125,184)"/></g></svg>