<?xml version="1.0" encoding="UTF-8" standalone="no"?><!-- Generator: Gravit.io --><svg xmlns="http://www.w3.org/2000/svg" xmlns:xlink="http://www.w3.org/1999/xlink" style="isolation:isolate" viewBox="0 0 101 101" width="101pt" height="101pt"><defs><clipPath id="_clipPath_rUmFmJV22LmcN2nPnlzfWPHicLenxeAO"><rect width="101" height="101"/></clipPath></defs><g clip-path="url(#_clipPath_rUmFmJV22LmcN2nPnlzfWPHicLenxeAO)"><g><rect x="0" y="0" width="101" height="101" transform="matrix(1,0,0,1,0,0)" fill="none"/><rect x="2.02" y="7.407" width="96.96" height="101" transform="matrix(1,0,0,1,0,0)" fill="none"/><path d=" M 65.849 56.788 L 60.671 59.902 L 52.349 44.886 L 57.527 41.772 L 63.425 52.414 L 63.425 52.414 L 68.743 49.216 L 71.167 53.589 L 65.849 56.788 Z " fill-rule="evenodd" fill="rgb(68,114,196)"/><path d=" M 67.099 44.886 L 75.421 59.902 L 80.599 56.788 L 78.175 52.414 L 72.277 41.772 L 67.099 44.886 Z  M 80.599 56.788 L 85.917 53.589 L 83.493 49.216 L 78.175 52.414 L 78.175 52.414 L 80.599 56.788 Z " fill-rule="evenodd" fill="rgb(68,114,196)"/><path d=" M 15.861 45.417 L 25.409 59.621 C 26.055 59.15 27.823 57.86 30.441 55.951 L 20.893 41.747 L 15.861 45.417 Z " fill="rgb(68,114,196)"/><path d=" M 20.086 42.312 L 22.637 40.452 Q 23.223 40.004 23.938 39.708 C 24.556 39.453 25.389 39.292 25.785 39.183 C 26.967 38.856 27.754 38.953 28.044 38.973 C 29.555 39.079 30.984 39.412 31.936 39.999 C 33.452 40.937 34.291 42.351 34.437 42.53 C 34.584 42.71 35.466 44.245 35.703 45.307 C 35.936 46.355 35.864 47.463 35.751 48.354 C 35.643 49.207 35.344 50.283 34.891 51.241 Q 34.277 52.541 32.452 54.459 L 29.767 56.417 L 20.086 42.312 Z " fill="rgb(68,114,196)"/><path d=" M 22.866 46.446 L 26.853 52.375 L 28.44 51.217 Q 29.251 50.661 29.539 50.21 C 29.813 49.782 29.939 49.3 30.002 48.844 C 30.073 48.338 29.981 47.936 29.883 47.494 C 29.786 47.052 29.485 46.724 29.274 46.294 Q 28.772 45.571 28.4 45.287 Q 27.963 44.952 26.989 44.672 Q 26.234 44.617 25.832 44.695 Q 25.313 44.794 24.455 45.288 L 22.866 46.446 Z " fill="rgb(244,246,247)"/><path d=" M 36.791 39.727 L 36.791 58.929 L 41.769 58.929 L 41.769 39.727 L 36.791 39.727 Z " fill="rgb(68,114,196)"/><rect x="41.584" y="54.203" width="10.441" height="4.726" transform="matrix(1,0,0,1,0,0)" fill="rgb(68,114,196)"/><rect x="41.584" y="46.965" width="10.441" height="4.726" transform="matrix(1,0,0,1,0,0)" fill="rgb(68,114,196)"/><rect x="41.584" y="39.727" width="10.441" height="4.726" transform="matrix(1,0,0,1,0,0)" fill="rgb(68,114,196)"/><ellipse vector-effect="non-scaling-stroke" cx="50.49999999999999" cy="49.32806333333334" rx="38.395416666666655" ry="35.34999999999999" fill="none" stroke-width="3" stroke="rgb(68,114,196)" stroke-linejoin="miter" stroke-linecap="butt" stroke-miterlimit="4"/></g></g></svg>