<?xml version="1.0" encoding="UTF-8" standalone="no"?><!-- Generator: Gravit.io --><svg xmlns="http://www.w3.org/2000/svg" xmlns:xlink="http://www.w3.org/1999/xlink" style="isolation:isolate" viewBox="0 0 16.5 16.5" width="16.5pt" height="16.5pt"><defs><clipPath id="_clipPath_Zw9URPQcwXuVntTPo8bvmQsaTOAEX4hR"><rect width="16.5" height="16.5"/></clipPath></defs><g clip-path="url(#_clipPath_Zw9URPQcwXuVntTPo8bvmQsaTOAEX4hR)"><path d=" M 8.5 0.5 C 12.918 0.5 16.5 4.082 16.5 8.5 C 16.5 12.918 12.918 16.5 8.5 16.5 C 4.082 16.5 0.5 12.918 0.5 8.5 C 0.5 4.082 4.082 0.5 8.5 0.5 Z  M 5 8 C 4.724 8 4.5 8.224 4.5 8.5 C 4.5 8.776 4.724 9 5 9 L 10.793 9 L 8.646 11.146 C 8.45 11.342 8.45 11.658 8.646 11.854 C 8.842 12.05 9.158 12.05 9.354 11.854 L 12.354 8.854 C 12.448 8.76 12.501 8.633 12.501 8.5 C 12.501 8.367 12.448 8.24 12.354 8.146 L 9.354 5.146 C 9.158 4.95 8.842 4.95 8.646 5.146 C 8.45 5.342 8.45 5.658 8.646 5.854 L 10.793 8 L 5 8 Z " fill="rgb(68,114,196)"/></g></svg>