<?xml version="1.0" encoding="UTF-8" standalone="no"?><!-- Generator: Gravit.io --><svg xmlns="http://www.w3.org/2000/svg" xmlns:xlink="http://www.w3.org/1999/xlink" style="isolation:isolate" viewBox="0 0 16.5 16.5" width="16.5pt" height="16.5pt"><defs><clipPath id="_clipPath_Yz9a6CkxWxG4oW5k6GARSmFzSVMS1QRo"><rect width="16.5" height="16.5"/></clipPath></defs><g clip-path="url(#_clipPath_Yz9a6CkxWxG4oW5k6GARSmFzSVMS1QRo)"><path d=" M 8.5 0 C 4.082 0 0.5 3.582 0.5 8 C 0.5 12.418 4.082 16 8.5 16 C 12.918 16 16.5 12.418 16.5 8 C 16.5 3.582 12.918 0 8.5 0 Z  M 12 7.5 C 12.276 7.5 12.5 7.724 12.5 8 C 12.5 8.276 12.276 8.5 12 8.5 L 6.207 8.5 L 8.354 10.646 C 8.55 10.842 8.55 11.158 8.354 11.354 C 8.158 11.55 7.842 11.55 7.646 11.354 L 4.646 8.354 C 4.552 8.26 4.499 8.133 4.499 8 C 4.499 7.867 4.552 7.74 4.646 7.646 L 7.646 4.646 C 7.842 4.45 8.158 4.45 8.354 4.646 C 8.55 4.842 8.55 5.158 8.354 5.354 L 6.207 7.5 L 12 7.5 Z " fill="rgb(68,114,196)"/></g></svg>